<svg width="110" height="25" viewBox="0 0 110 25" fill="none" xmlns="http://www.w3.org/2000/svg">
<path d="M12.048 1.152V12.624C12.048 14.4 11.544 15.768 10.536 16.728C9.544 17.688 8.2 18.168 6.504 18.168C4.728 18.168 3.304 17.664 2.232 16.656C1.16 15.648 0.624 14.216 0.624 12.36H4.704C4.704 13.064 4.848 13.6 5.136 13.968C5.424 14.32 5.84 14.496 6.384 14.496C6.88 14.496 7.264 14.336 7.536 14.016C7.808 13.696 7.944 13.232 7.944 12.624V1.152H12.048ZM28.587 4.608V18H24.483V16.176C24.067 16.768 23.499 17.248 22.779 17.616C22.075 17.968 21.291 18.144 20.427 18.144C19.403 18.144 18.499 17.92 17.715 17.472C16.931 17.008 16.323 16.344 15.891 15.48C15.459 14.616 15.243 13.6 15.243 12.432V4.608H19.323V11.88C19.323 12.776 19.555 13.472 20.019 13.968C20.483 14.464 21.107 14.712 21.891 14.712C22.691 14.712 23.323 14.464 23.787 13.968C24.251 13.472 24.483 12.776 24.483 11.88V4.608H28.587ZM36.9829 18.192C35.8149 18.192 34.7749 17.992 33.8629 17.592C32.9509 17.192 32.2309 16.648 31.7029 15.96C31.1749 15.256 30.8789 14.472 30.8149 13.608H34.8709C34.9189 14.072 35.1349 14.448 35.5189 14.736C35.9029 15.024 36.3749 15.168 36.9349 15.168C37.4469 15.168 37.8389 15.072 38.1109 14.88C38.3989 14.672 38.5429 14.408 38.5429 14.088C38.5429 13.704 38.3429 13.424 37.9429 13.248C37.5429 13.056 36.8949 12.848 35.9989 12.624C35.0389 12.4 34.2389 12.168 33.5989 11.928C32.9589 11.672 32.4069 11.28 31.9429 10.752C31.4789 10.208 31.2469 9.48 31.2469 8.568C31.2469 7.8 31.4549 7.104 31.8709 6.48C32.3029 5.84 32.9269 5.336 33.7429 4.968C34.5749 4.6 35.5589 4.416 36.6949 4.416C38.3749 4.416 39.6949 4.832 40.6549 5.664C41.6309 6.496 42.1909 7.6 42.3349 8.976H38.5429C38.4789 8.512 38.2709 8.144 37.9189 7.872C37.5829 7.6 37.1349 7.464 36.5749 7.464C36.0949 7.464 35.7269 7.56 35.4709 7.752C35.2149 7.928 35.0869 8.176 35.0869 8.496C35.0869 8.88 35.2869 9.168 35.6869 9.36C36.1029 9.552 36.7429 9.744 37.6069 9.936C38.5989 10.192 39.4069 10.448 40.0309 10.704C40.6549 10.944 41.1989 11.344 41.6629 11.904C42.1429 12.448 42.3909 13.184 42.4069 14.112C42.4069 14.896 42.1829 15.6 41.7349 16.224C41.3029 16.832 40.6709 17.312 39.8389 17.664C39.0229 18.016 38.0709 18.192 36.9829 18.192ZM52.3817 14.52V18H50.2937C48.8057 18 47.6457 17.64 46.8137 16.92C45.9817 16.184 45.5657 14.992 45.5657 13.344V8.016H43.9337V4.608H45.5657V1.344H49.6697V4.608H52.3577V8.016H49.6697V13.392C49.6697 13.792 49.7657 14.08 49.9577 14.256C50.1497 14.432 50.4697 14.52 50.9177 14.52H52.3817Z" fill="white"/>
<path d="M60.7637 18.168C59.5317 18.168 58.4277 17.968 57.4517 17.568C56.4757 17.168 55.6917 16.576 55.0997 15.792C54.5237 15.008 54.2197 14.064 54.1877 12.96H58.5557C58.6197 13.584 58.8357 14.064 59.2037 14.4C59.5717 14.72 60.0517 14.88 60.6437 14.88C61.2517 14.88 61.7317 14.744 62.0837 14.472C62.4357 14.184 62.6117 13.792 62.6117 13.296C62.6117 12.88 62.4677 12.536 62.1797 12.264C61.9077 11.992 61.5637 11.768 61.1477 11.592C60.7477 11.416 60.1717 11.216 59.4197 10.992C58.3317 10.656 57.4437 10.32 56.7557 9.984C56.0677 9.648 55.4757 9.152 54.9797 8.496C54.4837 7.84 54.2357 6.984 54.2357 5.928C54.2357 4.36 54.8037 3.136 55.9397 2.256C57.0757 1.36 58.5557 0.912 60.3797 0.912C62.2357 0.912 63.7317 1.36 64.8677 2.256C66.0037 3.136 66.6117 4.368 66.6917 5.952H62.2517C62.2197 5.408 62.0197 4.984 61.6517 4.68C61.2837 4.36 60.8117 4.2 60.2357 4.2C59.7397 4.2 59.3397 4.336 59.0357 4.608C58.7317 4.864 58.5797 5.24 58.5797 5.736C58.5797 6.28 58.8357 6.704 59.3477 7.008C59.8597 7.312 60.6597 7.64 61.7477 7.992C62.8357 8.36 63.7157 8.712 64.3877 9.048C65.0757 9.384 65.6677 9.872 66.1637 10.512C66.6597 11.152 66.9077 11.976 66.9077 12.984C66.9077 13.944 66.6597 14.816 66.1637 15.6C65.6837 16.384 64.9797 17.008 64.0517 17.472C63.1237 17.936 62.0277 18.168 60.7637 18.168ZM76.8973 14.52V18H74.8093C73.3213 18 72.1613 17.64 71.3293 16.92C70.4973 16.184 70.0813 14.992 70.0813 13.344V8.016H68.4493V4.608H70.0813V1.344H74.1853V4.608H76.8733V8.016H74.1853V13.392C74.1853 13.792 74.2813 14.08 74.4733 14.256C74.6653 14.432 74.9853 14.52 75.4333 14.52H76.8973ZM78.3673 11.28C78.3673 9.904 78.6233 8.696 79.1353 7.656C79.6633 6.616 80.3753 5.816 81.2713 5.256C82.1673 4.696 83.1673 4.416 84.2713 4.416C85.2153 4.416 86.0393 4.608 86.7433 4.992C87.4633 5.376 88.0153 5.88 88.3993 6.504V4.608H92.5033V18H88.3993V16.104C87.9993 16.728 87.4393 17.232 86.7193 17.616C86.0153 18 85.1913 18.192 84.2473 18.192C83.1593 18.192 82.1673 17.912 81.2713 17.352C80.3753 16.776 79.6633 15.968 79.1353 14.928C78.6233 13.872 78.3673 12.656 78.3673 11.28ZM88.3993 11.304C88.3993 10.28 88.1113 9.472 87.5353 8.88C86.9753 8.288 86.2873 7.992 85.4713 7.992C84.6553 7.992 83.9593 8.288 83.3833 8.88C82.8233 9.456 82.5433 10.256 82.5433 11.28C82.5433 12.304 82.8233 13.12 83.3833 13.728C83.9593 14.32 84.6553 14.616 85.4713 14.616C86.2873 14.616 86.9753 14.32 87.5353 13.728C88.1113 13.136 88.3993 12.328 88.3993 11.304ZM109.152 4.608L100.752 24.36H96.3364L99.4084 17.544L93.9604 4.608H98.5444L101.64 12.984L104.712 4.608H109.152Z" fill="#FF8D41"/>
</svg>
